<?xml version="1.0" encoding="UTF-8" standalone="no"?>
<!-- Created with Inkscape (http://www.inkscape.org/) -->

<svg
   xmlns:dc="http://purl.org/dc/elements/1.1/"
   xmlns:cc="http://creativecommons.org/ns#"
   xmlns:rdf="http://www.w3.org/1999/02/22-rdf-syntax-ns#"
   xmlns:svg="http://www.w3.org/2000/svg"
   xmlns="http://www.w3.org/2000/svg"
   xmlns:sodipodi="http://sodipodi.sourceforge.net/DTD/sodipodi-0.dtd"
   xmlns:inkscape="http://www.inkscape.org/namespaces/inkscape"
   width="444.33029mm"
   height="270.20328mm"
   viewBox="0 0 444.33029 270.20328"
   version="1.1"
   id="svg8"
   inkscape:version="0.92.1 r15371"
   sodipodi:docname="Loyalty.svg">
  <defs
     id="defs2" />
  <sodipodi:namedview
     id="base"
     pagecolor="#ffffff"
     bordercolor="#666666"
     borderopacity="1.0"
     inkscape:pageopacity="0.0"
     inkscape:pageshadow="2"
     inkscape:zoom="0.49497475"
     inkscape:cx="1062.5986"
     inkscape:cy="519.21371"
     inkscape:document-units="mm"
     inkscape:current-layer="layer1"
     showgrid="false"
     inkscape:window-width="1920"
     inkscape:window-height="1057"
     inkscape:window-x="-8"
     inkscape:window-y="-8"
     inkscape:window-maximized="1" />
  <metadata
     id="metadata5">
    <rdf:RDF>
      <cc:Work
         rdf:about="">
        <dc:format>image/svg+xml</dc:format>
        <dc:type
           rdf:resource="http://purl.org/dc/dcmitype/StillImage" />
        <dc:title></dc:title>
      </cc:Work>
    </rdf:RDF>
  </metadata>
  <g
     inkscape:label="Layer 1"
     inkscape:groupmode="layer"
     id="layer1"
     transform="translate(1043.7177,321.68759)">
    <path
       style="fill:#000000;fill-opacity:0;stroke-width:0.53453904"
       d="M 282.94748,136.77804 C 210.26226,111.55727 150.68164,90.81118 150.54609,90.67563 c -0.13552,-0.13554 0.43379,-3.61267 1.26516,-7.72694 5.31569,-26.30627 5.72042,-59.69996 1.06542,-87.9070004 -4.01886,-24.3521696 -11.09368,-46.4766396 -21.8109,-68.2070296 -8.67534,-17.59032 -17.98261,-31.93974 -31.95698,-49.26955 -0.77565,-0.96188 -1.31527,-1.8306 -1.19917,-1.93048 0.4114,-0.35392 232.45189,-79.55645 233.29865,-79.63198 0.58751,-0.0524 1.24706,0.94076 2.07889,3.13048 3.65828,9.6301 9.54616,18.59323 17.40193,26.49103 6.4169,6.4512 12.22013,10.70483 19.98089,14.64549 18.68368,9.48696 44.12578,12.3813 67.68486,7.69996 25.05972,-4.97953 45.31183,-19.78047 56.36202,-41.1914 1.56318,-3.02881 3.27482,-6.70964 3.80365,-8.17962 0.52879,-1.46999 1.0228,-2.75666 1.09775,-2.85928 0.11182,-0.15307 233.71686,79.49303 234.22795,79.85851 0.087,0.0624 -1.9699,2.77002 -4.57139,6.01703 -28.8128,35.962 -46.10171,76.91934 -51.9413,123.0485396 -3.38241,26.7190504 -2.2832,57.8788904 2.8467,80.7014204 1.00841,4.48633 1.07649,5.36522 0.43469,5.61152 -4.10258,1.57433 -263.64571,91.37415 -264.44345,91.4953 -0.58799,0.0893 -60.53879,-20.4728 -133.22398,-45.69359 z"
       id="path4635-5"
       inkscape:connector-curvature="0" />
    <path
       style="stroke-width:0.37347287"
       d="m -914.42409,-83.409802 c -50.7838,-17.621318 -92.41181,-32.116228 -92.50651,-32.210918 -0.095,-0.0947 0.3031,-2.52411 0.884,-5.39867 3.714,-18.37974 3.9967,-41.71129 0.7444,-61.41905 -2.8079,-17.01442 -7.751,-32.4724 -15.2389,-47.65504 -6.0613,-12.29004 -12.5641,-22.31572 -22.3278,-34.42374 -0.5419,-0.67205 -0.9189,-1.27901 -0.8378,-1.34879 0.2874,-0.24729 162.40991,-55.58467 163.00151,-55.63744 0.4105,-0.0366 0.8713,0.65729 1.4525,2.18721 2.556,6.72838 6.6698,12.99076 12.1584,18.50881 4.4834,4.50734 8.538,7.47927 13.9603,10.23254 13.054,6.62837 30.8299,8.65059 47.2902,5.37982 17.5088,-3.4791 31.65858,-13.82026 39.37917,-28.77969 1.09215,-2.11617 2.28804,-4.6879 2.65753,-5.71495 0.36946,-1.02706 0.71461,-1.92603 0.76697,-1.99773 0.0781,-0.10695 163.2938,55.54035 163.65088,55.7957 0.0608,0.0436 -1.37634,1.93538 -3.19395,4.204 -20.13098,25.126 -32.21042,53.74216 -36.29046,85.97181 -2.3632,18.66812 -1.59522,40.43893 1.98896,56.38464 0.70453,3.1345 0.75213,3.74858 0.30368,3.92067 -2.86639,1.09993 -184.20448,63.841458 -184.76188,63.926098 -0.4108,0.0624 -42.2974,-14.30396 -93.0812,-31.92528 z"
       id="path4635-1"
       inkscape:connector-curvature="0" />
    <path
       style="fill:#d2d3d5;fill-opacity:1;stroke-width:0.53453904"
       d="m -883.23121,-318.4297 c -52.3537,17.52771 -104.5433,35.59297 -156.82619,53.36914 26.622,32.59855 40.92419,74.85269 39.1309,116.92968 -0.183,10.27512 -1.7304,20.86034 -3.2969,30.71875 60.87609,21.254379 121.78839,42.410675 182.81249,63.236324 60.85674,-20.848109 121.61654,-41.980085 182.40033,-63.039064 -5.9873,-32.93263 -4.11969,-67.61554 7.80281,-99.06249 6.5288,-17.7363 16.5349,-33.9838 28.16012,-48.81445 -52.82642,-18.03795 -105.58352,-36.2901 -158.54692,-53.89062 -8.239,20.07803 -27.85504,34.80663 -49.57414,36.51953 -22.8606,2.91974 -48.7282,-3.6289 -62.6996,-23.14961 -3.1689,-4.08281 -5.3515,-8.78166 -7.6286,-13.3836 l -0.9505,0.31045 z"
       id="path4808"
       inkscape:connector-curvature="0" />
    <path
       style="stroke-width:0.37347287"
       d="m -892.31132,-303.98635 c -43.00245,14.25045 -85.77467,29.18167 -128.65428,43.79492 26.51226,38.76592 36.77393,87.74233 30.10936,134.06055 56.49704,19.49164 112.84115,39.430323 169.47266,58.531251 56.45965,-19.543578 113.00844,-38.814101 169.33398,-58.714851 -7.21005,-46.25606 3.47944,-95.1888 29.91016,-133.89648 -44.5212,-15.11443 -88.86283,-30.88185 -133.59375,-45.24219 -17.84998,29.92014 -57.62981,41.31935 -90.02344,31.32031 -17.04835,-5.00026 -32.72844,-15.93933 -41.74414,-31.43945 -1.60352,0.52865 -3.20703,1.05729 -4.81055,1.58594 z"
       id="path4635-1-4"
       inkscape:connector-curvature="0" />
  </g>
</svg>
